<svg xmlns="http://www.w3.org/2000/svg" width="256" height="256" viewBox="0 0 256 256" role="img" aria-label="Codex Skills Manager icon">
  <defs>
    <linearGradient id="bg" x1="42" y1="24" x2="214" y2="232" gradientUnits="userSpaceOnUse">
      <stop offset="0" stop-color="#111827"/>
      <stop offset="1" stop-color="#05070a"/>
    </linearGradient>
    <linearGradient id="accent" x1="96" y1="84" x2="176" y2="178" gradientUnits="userSpaceOnUse">
      <stop offset="0" stop-color="#f8fafc"/>
      <stop offset="1" stop-color="#d8e2ee"/>
    </linearGradient>
    <filter id="shadow" x="-20%" y="-20%" width="140%" height="140%">
      <feDropShadow dx="0" dy="12" stdDeviation="12" flood-color="#000000" flood-opacity="0.28"/>
    </filter>
  </defs>
  <rect x="18" y="18" width="220" height="220" rx="52" fill="url(#bg)" filter="url(#shadow)"/>
  <path d="M128 57 181 87v37l-31 18v-29l-22-13-22 13v29l-31-18V87l53-30Z" fill="none" stroke="url(#accent)" stroke-width="16" stroke-linejoin="round" stroke-linecap="round"/>
  <path d="M75 132v37l53 30 53-30v-37l-31 18v18l-22 13-22-13v-18l-31-18Z" fill="none" stroke="url(#accent)" stroke-width="16" stroke-linejoin="round" stroke-linecap="round"/>
  <path d="M91 91 128 70l37 21" fill="none" stroke="#ffffff" stroke-width="10" stroke-linecap="round" opacity="0.72"/>
  <circle cx="128" cy="128" r="17" fill="#10b981"/>
  <circle cx="128" cy="128" r="7" fill="#071014"/>
</svg>
